<?xml version="1.0" encoding="UTF-8"?>
<svg xmlns="http://www.w3.org/2000/svg" viewBox="0 0 288 81.58">
  <g transform="translate(0,48.24) scale(0.74,1)"><path d="M248 807Q248 951 302.0 1004.0Q356 1057 510 1057H1288Q1442 1057 1496.0 1004.0Q1550 951 1550 807V250Q1550 105 1496.0 52.5Q1442 0 1288 0H1174L1307 -272H1063L944 0H510Q356 0 302.0 52.5Q248 105 248 250ZM494 199H856L758 428L936 500L1079 199H1305V868H494Z" transform="translate(0.0,0) scale(0.0336181640625,-0.0336181640625)" fill="#f40f41"/><path d="M516 1057V199H1217V1057H1462V250Q1462 105 1408.0 52.5Q1354 0 1200 0H532Q379 0 324.5 52.5Q270 105 270 250V1057Z" transform="translate(60.445458984374994,0) scale(0.0336181640625,-0.0336181640625)" fill="#f40f41"/><path d="M541 422H1004L776 852ZM68 0 666 1057H903L1509 0H1233L1106 231H436L313 0Z" transform="translate(118.70573730468749,0) scale(0.0336181640625,-0.0336181640625)" fill="#f40f41"/><path d="M270 0V1057H516V199H1309V0Z" transform="translate(171.788818359375,0) scale(0.0336181640625,-0.0336181640625)" fill="#f40f41"/><path d="M270 0V1057H516V0Z" transform="translate(218.8206298828125,0) scale(0.0336181640625,-0.0336181640625)" fill="#f40f41"/><path d="M762 868V0H516V868H31V1057H1249V868Z" transform="translate(245.2445068359375,0) scale(0.0336181640625,-0.0336181640625)" fill="#f40f41"/><path d="M541 422H1004L776 852ZM68 0 666 1057H903L1509 0H1233L1106 231H436L313 0Z" transform="translate(288.2757568359375,0) scale(0.0336181640625,-0.0336181640625)" fill="#f40f41"/><path d="M1186 872H494V645H1153Q1308 645 1362.5 592.0Q1417 539 1417 395V250Q1417 106 1362.5 53.0Q1308 0 1153 0H500Q345 0 290.5 53.0Q236 106 236 250V279L453 324V199H1200V440H541Q387 440 333.0 493.0Q279 546 279 690V807Q279 951 333.0 1004.0Q387 1057 541 1057H1141Q1290 1057 1346.5 1006.0Q1403 955 1403 825V803L1186 752Z" transform="translate(341.358837890625,0) scale(0.0336181640625,-0.0336181640625)" fill="#f40f41"/></g>
  <g transform="translate(6.16,71.97) scale(0.75,1)"><path d="M268 0V1057H467L965 418L1452 1057H1649V0H1421V653Q1421 672 1423.5 701.0Q1426 730 1430 766Q1410 725 1395.0 698.5Q1380 672 1368 655L971 127H922L524 657Q502 687 486.5 713.5Q471 740 461 765Q464 732 465.5 705.0Q467 678 467 653V0Z" transform="translate(0.0,0) scale(0.0076318359375,-0.0076318359375)" fill="#0A0E1A"/><path d="M541 422H1004L776 852ZM68 0 666 1057H903L1509 0H1233L1106 231H436L313 0Z" transform="translate(14.469960937500002,0) scale(0.0076318359375,-0.0076318359375)" fill="#0A0E1A"/><path d="M762 868V0H516V868H31V1057H1249V868Z" transform="translate(26.5206298828125,0) scale(0.0076318359375,-0.0076318359375)" fill="#0A0E1A"/><path d="M270 0V1057H1352V877H516V641H1004V461H516V199H1362V0Z" transform="translate(36.2893798828125,0) scale(0.0076318359375,-0.0076318359375)" fill="#0A0E1A"/><path d="M1065 874H512V580H1065Q1129 580 1152.5 598.5Q1176 617 1176 664V791Q1176 837 1152.5 855.5Q1129 874 1065 874ZM270 0V1057H1174Q1300 1057 1356.5 1008.5Q1413 960 1413 852V604Q1413 497 1356.5 448.0Q1300 399 1174 399H1036L1524 0H1171L745 399H512V0Z" transform="translate(48.088198242187495,0) scale(0.0076318359375,-0.0076318359375)" fill="#0A0E1A"/><path d="M270 0V1057H516V0Z" transform="translate(60.6196728515625,0) scale(0.0076318359375,-0.0076318359375)" fill="#0A0E1A"/><path d="M541 422H1004L776 852ZM68 0 666 1057H903L1509 0H1233L1106 231H436L313 0Z" transform="translate(66.6182958984375,0) scale(0.0076318359375,-0.0076318359375)" fill="#0A0E1A"/><path d="M270 0V1057H516V199H1309V0Z" transform="translate(78.66896484374999,0) scale(0.0076318359375,-0.0076318359375)" fill="#0A0E1A"/><path d="M762 868V0H516V868H31V1057H1249V868Z" transform="translate(95.39794921874999,0) scale(0.0076318359375,-0.0076318359375)" fill="#0A0E1A"/><path d="M270 0V1057H1352V877H516V641H1004V461H516V199H1362V0Z" transform="translate(105.16669921874998,0) scale(0.0076318359375,-0.0076318359375)" fill="#0A0E1A"/><path d="M1186 872H494V645H1153Q1308 645 1362.5 592.0Q1417 539 1417 395V250Q1417 106 1362.5 53.0Q1308 0 1153 0H500Q345 0 290.5 53.0Q236 106 236 250V279L453 324V199H1200V440H541Q387 440 333.0 493.0Q279 546 279 690V807Q279 951 333.0 1004.0Q387 1057 541 1057H1141Q1290 1057 1346.5 1006.0Q1403 955 1403 825V803L1186 752Z" transform="translate(116.96551757812499,0) scale(0.0076318359375,-0.0076318359375)" fill="#0A0E1A"/><path d="M762 868V0H516V868H31V1057H1249V868Z" transform="translate(129.6114697265625,0) scale(0.0076318359375,-0.0076318359375)" fill="#0A0E1A"/><path d="M270 0V1057H516V0Z" transform="translate(139.3802197265625,0) scale(0.0076318359375,-0.0076318359375)" fill="#0A0E1A"/><path d="M268 0V1057H436L1180 434Q1218 403 1247.0 375.5Q1276 348 1300 319Q1294 408 1292.0 445.0Q1290 482 1290 502V1057H1511V0H1343L567 653Q539 678 518.0 698.0Q497 718 479 739Q484 690 486.5 646.5Q489 603 489 571V0Z" transform="translate(145.3788427734375,0) scale(0.0076318359375,-0.0076318359375)" fill="#0A0E1A"/><path d="M1262 868H494V199H1262V434H860V614H1501V250Q1501 105 1447.0 52.5Q1393 0 1239 0H510Q356 0 302.0 52.5Q248 105 248 250V807Q248 951 302.0 1004.0Q356 1057 510 1057H1239Q1391 1057 1446.0 1005.0Q1501 953 1501 817V793L1262 750Z" transform="translate(158.9635107421875,0) scale(0.0076318359375,-0.0076318359375)" fill="#0A0E1A"/><path d="M270 0V1057H516V199H1309V0Z" transform="translate(178.37890136718752,0) scale(0.0076318359375,-0.0076318359375)" fill="#0A0E1A"/><path d="M541 422H1004L776 852ZM68 0 666 1057H903L1509 0H1233L1106 231H436L313 0Z" transform="translate(189.05583984375002,0) scale(0.0076318359375,-0.0076318359375)" fill="#0A0E1A"/><path d="M1073 885H512V633H1073Q1137 633 1161.5 650.0Q1186 667 1186 709V809Q1186 850 1161.5 867.5Q1137 885 1073 885ZM1073 459H512V190H1073Q1143 190 1167.5 211.0Q1192 232 1192 285V365Q1192 418 1167.5 438.5Q1143 459 1073 459ZM270 0V1057H1176Q1301 1057 1357.0 1008.0Q1413 959 1413 852V723Q1413 647 1366.0 601.5Q1319 556 1231 545Q1322 533 1371.5 480.0Q1421 427 1421 342V207Q1421 102 1344.0 51.0Q1267 0 1110 0Z" transform="translate(201.10650878906253,0) scale(0.0076318359375,-0.0076318359375)" fill="#0A0E1A"/><path d="M248 807Q248 951 302.0 1004.0Q356 1057 510 1057H1288Q1442 1057 1496.0 1004.0Q1550 951 1550 807V250Q1550 105 1496.0 52.5Q1442 0 1288 0H510Q356 0 302.0 52.5Q248 105 248 250ZM494 199H1305V868H494Z" transform="translate(213.51587402343753,0) scale(0.0076318359375,-0.0076318359375)" fill="#0A0E1A"/><path d="M1065 874H512V580H1065Q1129 580 1152.5 598.5Q1176 617 1176 664V791Q1176 837 1152.5 855.5Q1129 874 1065 874ZM270 0V1057H1174Q1300 1057 1356.5 1008.5Q1413 960 1413 852V604Q1413 497 1356.5 448.0Q1300 399 1174 399H1036L1524 0H1171L745 399H512V0Z" transform="translate(227.23791503906253,0) scale(0.0076318359375,-0.0076318359375)" fill="#0A0E1A"/><path d="M541 422H1004L776 852ZM68 0 666 1057H903L1509 0H1233L1106 231H436L313 0Z" transform="translate(239.76938964843754,0) scale(0.0076318359375,-0.0076318359375)" fill="#0A0E1A"/><path d="M762 868V0H516V868H31V1057H1249V868Z" transform="translate(251.82005859375005,0) scale(0.0076318359375,-0.0076318359375)" fill="#0A0E1A"/><path d="M248 807Q248 951 302.0 1004.0Q356 1057 510 1057H1288Q1442 1057 1496.0 1004.0Q1550 951 1550 807V250Q1550 105 1496.0 52.5Q1442 0 1288 0H510Q356 0 302.0 52.5Q248 105 248 250ZM494 199H1305V868H494Z" transform="translate(261.58880859375006,0) scale(0.0076318359375,-0.0076318359375)" fill="#0A0E1A"/><path d="M1065 874H512V580H1065Q1129 580 1152.5 598.5Q1176 617 1176 664V791Q1176 837 1152.5 855.5Q1129 874 1065 874ZM270 0V1057H1174Q1300 1057 1356.5 1008.5Q1413 960 1413 852V604Q1413 497 1356.5 448.0Q1300 399 1174 399H1036L1524 0H1171L745 399H512V0Z" transform="translate(275.31084960937505,0) scale(0.0076318359375,-0.0076318359375)" fill="#0A0E1A"/><path d="M270 0V1057H516V0Z" transform="translate(287.84232421875004,0) scale(0.0076318359375,-0.0076318359375)" fill="#0A0E1A"/><path d="M270 0V1057H1352V877H516V641H1004V461H516V199H1362V0Z" transform="translate(293.84094726562506,0) scale(0.0076318359375,-0.0076318359375)" fill="#0A0E1A"/><path d="M1186 872H494V645H1153Q1308 645 1362.5 592.0Q1417 539 1417 395V250Q1417 106 1362.5 53.0Q1308 0 1153 0H500Q345 0 290.5 53.0Q236 106 236 250V279L453 324V199H1200V440H541Q387 440 333.0 493.0Q279 546 279 690V807Q279 951 333.0 1004.0Q387 1057 541 1057H1141Q1290 1057 1346.5 1006.0Q1403 955 1403 825V803L1186 752Z" transform="translate(305.63976562500005,0) scale(0.0076318359375,-0.0076318359375)" fill="#0A0E1A"/><path d="M270 0V1057H516V199H1309V0Z" transform="translate(324.33776367187505,0) scale(0.0076318359375,-0.0076318359375)" fill="#0A0E1A"/><path d="M412 317H449Q476 317 487.0 301.5Q498 286 498 242V76Q498 28 486.0 14.0Q474 0 412 0H229Q202 0 191.0 16.0Q180 32 180 76V242Q180 289 192.0 303.0Q204 317 266 317Z" transform="translate(335.01470214843755,0) scale(0.0076318359375,-0.0076318359375)" fill="#0A0E1A"/><path d="M270 0V1057H516V199H1309V0Z" transform="translate(340.18908691406256,0) scale(0.0076318359375,-0.0076318359375)" fill="#0A0E1A"/><path d="M412 317H449Q476 317 487.0 301.5Q498 286 498 242V76Q498 28 486.0 14.0Q474 0 412 0H229Q202 0 191.0 16.0Q180 32 180 76V242Q180 289 192.0 303.0Q204 317 266 317Z" transform="translate(350.86602539062505,0) scale(0.0076318359375,-0.0076318359375)" fill="#0A0E1A"/><path d="M1157 868H494V199H1157V426L1403 375V250Q1403 105 1348.5 52.5Q1294 0 1141 0H510Q356 0 302.0 52.5Q248 105 248 250V807Q248 951 302.0 1004.0Q356 1057 510 1057H1141Q1294 1057 1348.5 1004.0Q1403 951 1403 807V707L1157 668Z" transform="translate(356.04041015625006,0) scale(0.0076318359375,-0.0076318359375)" fill="#0A0E1A"/></g>
</svg>
